<svg id="Layer_1" enable-background="new 0 0 512 512" height="512" viewBox="0 0 512 512" width="512" xmlns="http://www.w3.org/2000/svg"><g><g><path d="m403.053 222.499h-294.106c-12.794 0-23.166-10.372-23.166-23.166 0-12.794 10.372-23.166 23.166-23.166h294.106c12.794 0 23.166 10.372 23.166 23.166 0 12.794-10.372 23.166-23.166 23.166z" fill="#ffdad1"/><g><g><path d="m419.135 512v-37.751c0-89.821-73.168-162.636-163.425-162.636s-163.426 72.814-163.426 162.636l-.579 37.751" fill="#54768a"/><ellipse cx="255.42" cy="361.592" fill="#ffdad1" rx="50.488" ry="50.212"/><g><path d="m393.573 223.481c-.046 75.79-61.82 137.193-137.978 137.148s-137.813-61.522-137.813-137.312l-.09-63.123c24.414-55.076 88.812-129.644 138.069-129.615 56.82.034 137.776 47.229 137.776 112.905-.002 0 .047 60.753.036 79.997z" fill="#ffdad1"/><path d="m393.535 143.484c0-65.677-80.956-112.872-137.776-112.906-5.439-.003-11.063.906-16.796 2.595 53.048 10.706 113.365 53.62 113.365 110.31 0 0 .049 60.753.037 79.997-.041 68.791-50.938 125.726-117.285 135.622 6.693.998 13.542 1.522 20.514 1.526 76.158.046 137.933-61.358 137.978-137.148.012-19.243-.037-79.996-.037-79.996z" fill="#ffd0c4"/><path d="m292.13 296.499c-3.008-3.026-7.9-3.04-10.927-.033-13.697 13.615-35.974 13.603-49.656-.029-3.023-3.013-7.915-3.004-10.927.019s-3.003 7.915.02 10.927c9.853 9.818 22.8 14.726 35.75 14.726 12.928 0 25.858-4.894 35.706-14.683 3.027-3.008 3.042-7.901.034-10.927z" fill="#ffbead"/></g></g><g fill="#395a6e"><path d="m155.812 512v-40.928c0-4.268-3.459-7.726-7.726-7.726s-7.726 3.459-7.726 7.726v40.928z"/><path d="m371.038 512v-40.928c0-4.268-3.459-7.726-7.726-7.726s-7.726 3.459-7.726 7.726v40.928z"/></g></g><g><path d="m142.337 145.084c21.155-10.577 39.13.992 53.569 6.181 43.954 15.796 89.969 10.989 123.151-34.134 23.865-32.453 74.478-19.435 74.478 26.353 0 .77-.251-.748 0 0v-27.775c0-74.978-62.85-115.709-137.922-115.709-76.172 0-137.922 39.954-137.922 115.709v78.86c0-22.014 5.416-39.87 24.646-49.485z" fill="#ba7652"/></g><g fill="#b06a45"><path d="m255.613 0c-7.079 0-14.033.346-20.825 1.033 60.218 6.193 108.751 40.155 116.465 98.157 21.31-1.071 42.282 14.82 42.282 44.294v-27.775c0-74.978-62.85-115.709-137.922-115.709z"/><path d="m393.535 143.484c-.251-.748 0 .77 0 0z"/></g></g><g fill="#ff91c1"><path d="m217.535 191.212c-8.593 0-15.98 5.697-19.243 13.86-3.263-8.163-10.65-13.86-19.243-13.86-11.614 0-21.029 10.406-21.029 23.243 0 29.383 40.272 45.609 40.272 45.609s39.875-16.446 40.272-45.609c.174-12.835-9.415-23.243-21.029-23.243z"/><path d="m332.949 192.876c-8.593 0-15.98 5.697-19.243 13.86-3.263-8.163-10.65-13.86-19.243-13.86-11.614 0-21.029 10.406-21.029 23.243 0 29.383 40.272 45.609 40.272 45.609s39.875-16.446 40.272-45.609c.174-12.835-9.415-23.243-21.029-23.243z"/></g></g></svg>